# xmcd CD database file
#
# Track frame offsets:
#	150
#	26835
#	48847
#
# Disc length: 950 seconds
#
# Revision: 0
# Processed by: cddbd v1.5PL3 Copyright (c) Steve Scherf et al.
# Submitted via: CDex 1.51
#
DISCID=1d03b403
DTITLE=相川七瀬 - 愛ノ詩 -マジェンタレイン-
DYEAR=2004
DGENRE=JPop
TTITLE0=愛ノ詩 -マジェンタレイン-
TTITLE1=ダリア -She Knows Love-
TTITLE2=桜のレクイエム
EXTD=YEAR: 2004
EXTT0=
EXTT1=
EXTT2=
PLAYORDER=
